<?xml version="1.0" encoding="utf-8"?>
<!-- Generator: Adobe Illustrator 19.0.0, SVG Export Plug-In . SVG Version: 6.00 Build 0)  -->
<svg version="1.1" xmlns="http://www.w3.org/2000/svg" xmlns:xlink="http://www.w3.org/1999/xlink" x="0px" y="0px"
	 viewBox="-830 493 258 96" style="enable-background:new -830 493 258 96;" xml:space="preserve">
<style type="text/css">
	.st0{fill:#492764;}
	.st1{font-family:'Calibri';}
	.st2{font-size:14.1496px;}
	.st3{fill:#FD982D;}
	.st4{fill:none;enable-background:new    ;}
	.st5{fill:#462460;}
	.st6{fill:url(#XMLID_3_);}
	.st7{fill:#44225D;}
	.st8{fill:url(#XMLID_4_);}
</style>
<g id="Camada_1">
	<text transform="matrix(1 0 0 1 -733.3371 585.9995)" class="st0 st1 st2">agência de </text>
	<text transform="matrix(1 0 0 1 -668.6624 585.9995)" class="st3 st1 st2">marketing digital</text>
	
		<image style="display:none;overflow:visible;" width="258" height="75" xlink:href="2E45C655.png"  transform="matrix(1 0 0 1 -830 493)">
	</image>
	<path class="st4" d="z"/>
</g>
<g id="Camada_2">
	<g id="XMLID_28_">
		<path id="XMLID_44_" class="st5" d="M-785.1,548.8c0,1-3.8,20.3-13.8,20.3c-6.6,0-11.1-3.5-11.1-16.2c0-7.8-0.1-11.8-1.4-11.8
			c-2.6,0-3.6,13.1-3.9,19.3c0.1,2.8,0.2,5.1,0.5,6.3c-2.4,2.4-12.1,2.9-13.3,1.8c-1.2-1.2-2.7-36.3-1.1-37.9
			c1.5-1.6,14.4-2,14.4-1.1c0,0.7-0.1,3.4-0.2,6.9c1.9-5.1,5-9.1,9.8-9.1c12.2,0,9.1,14.6,9.1,21.8c0,4.7-0.3,8.3,2.3,8.3
			c2.6,0,4.1-10.6,4.1-12.4C-788.7,543.9-785.1,547.7-785.1,548.8z"/>
		<path id="XMLID_41_" class="st5" d="M-758,548.9c0,4.8-0.3,8.4,2.3,8.4c2.6,0,4.1-10.7,4.1-12.5c1.1-1.1,4.7,2.7,4.7,3.7
			c0,1-3.7,20.4-13.8,20.4c-5.1,0-9.1-2.2-10.5-9.2c-2.7,7.2-7.4,9.3-11.3,9.1c-5.4-0.3-9.4-5.3-8.6-20.8c0.9-16.7,9.5-21,14.6-20.8
			c2.4,0.1,4.1,0.7,5.3,2.1c0.1-0.9,0.2-1.4,0.4-1.6c0.7-0.8,12.8-1.1,14.4,0.6C-755.7,529-758,537.8-758,548.9z M-777.7,546.3
			c-0.1,3.8-0.9,10.6,1.7,10.7c1.6,0,3.9-4.6,4.1-10.5c0.2-5.9,0.5-10.6-1.9-10.7C-775.4,535.7-777.5,540.4-777.7,546.3z"/>
		<path id="XMLID_39_" class="st5" d="M-737.6,537.4c3.3-4.9,7.4-10.3,9.7-10.3c4.1,0,5.1,3.6,5.1,4.1c0,0.3-5,4.9-8.3,9
			c1.4,4.6,5,15.1,7.4,15.1c3.1,0,4.7-9.7,4.7-10.6s4.5,1.7,4.5,3.2c0,1.6-2.9,19.7-11.8,19.7c-4.6,0-8.8-6.6-11.7-13.8
			c-0.1,5.9,0,10.6,0.4,12.3c-2.4,2.4-12.1,2.9-13.3,1.8c-1.2-1.1-1.2-47.4,0.4-49c1.6-1.6,13.8-2.9,13.8-1.1
			C-736.7,518.9-737.2,527.6-737.6,537.4z"/>
		<path id="XMLID_36_" class="st5" d="M-688.2,548.9c0,4.8-0.3,8.4,2.3,8.4c2.6,0,4.1-10.7,4.1-12.5c1.1-1.1,4.7,2.7,4.7,3.7
			c0,1-3.7,20.4-13.8,20.4c-5.1,0-9.1-2.2-10.5-9.2c-2.7,7.2-7.4,9.3-11.3,9.1c-5.4-0.3-9.4-5.3-8.6-20.8c0.9-16.7,9.5-21,14.6-20.8
			c2.4,0.1,4.1,0.7,5.3,2.1c0.1-0.9,0.2-1.4,0.4-1.6c0.7-0.8,12.8-1.1,14.4,0.6C-685.9,529-688.2,537.8-688.2,548.9z M-708,546.3
			c-0.1,3.8-0.9,10.6,1.7,10.7c1.6,0,3.9-4.6,4.1-10.5c0.2-5.9,0.5-10.6-1.9-10.7C-705.6,535.7-707.8,540.4-708,546.3z"/>
		<path id="XMLID_34_" class="st5" d="M-634,532.9c0,7.1-0.9,35.1-14.2,35.1c-5.1,0-8.6-3.1-10.8-7.7c-1.8,4.5-4.4,7.7-8.5,7.7
			c-17.5,0-14.9-38-14.1-38.8s13.1-4.1,13.1-1.9c0,2.9-0.1,32,3.4,32c1.4,0,1.7-7.3,1.8-15c-0.9-7.8,1-12.4,1.4-12.8
			c0.9-0.9,12.8-1.8,12.8,0.4c0,2.9-0.2,27.4,3.4,27.4c2.8,0,3.1-31.3,3.1-32.5C-642.6,525.6-634,525.9-634,532.9z"/>
		<path id="XMLID_32_" class="st5" d="M-624.3,553.3c0.9,0.8,2.6,1.3,5,0.4c0.5,3.6,1.9,6.5,5.7,6.5c6.5,0,9.3-12.9,9.3-15.5
			c0-1.3,5.4,1.4,5.4,2.3c0,0.9-2.5,21.5-16.9,21.5c-12.6,0-17.4-6.1-17.4-20.4c0-13.3,3.6-22.1,14.5-22.1c4.6,0,7,1.4,8.7,3.5
			c0.3,0.4-2.4,4.1-4.8,5.4c-0.2-1.1-0.6-1.3-1.4-1.3c-2.7,0-3.1,8.6-3.1,11.8c0,0.3,0,2.1-0.1,2.6
			C-620.4,550.9-622.1,551.6-624.3,553.3z"/>
		<path id="XMLID_29_" class="st5" d="M-590.5,532c2.5-3.9,5.9-5.4,8.9-5.4c5.4,0,9.6,4.9,9.6,20.4c0,16.7-8.3,21.4-13.4,21.4
			c-2.6,0-4.5-0.6-5.8-2.1c-2.8,2.2-11.9,2.6-13,1.6c-0.8-0.8-1.1-22-0.7-36.3c3.5-3.1,4.8-7.5,3.8-13.3c4.1-0.1,11.1,1.2,11.1,1.8
			C-590,521-590.3,525.9-590.5,532z M-585.4,549.3c0-5.9-0.3-10.6-2.9-10.6c-1.3,0-2.3,2.8-2.9,12.9c0.1,4.9,0.8,8.3,2.9,8.3
			C-586.7,559.9-585.4,555.2-585.4,549.3z"/>
	</g>
	<linearGradient id="XMLID_3_" gradientUnits="userSpaceOnUse" x1="-603.8903" y1="511.2837" x2="-626.9934" y2="551.2994">
		<stop  offset="0" style="stop-color:#D78C3E"/>
		<stop  offset="1" style="stop-color:#EBC32C"/>
	</linearGradient>
	<path id="XMLID_27_" class="st6" d="M-614.6,507.1c10.2,6.3,11.1,22-0.2,29c1.1,7.2-3,14.2-8.5,17.3c6.6,1.2,19.6-6,15.3-20
		c13.6-11.3,2.8-27.2-7.9-27.2L-614.6,507.1z"/>
	<path id="XMLID_26_" class="st5" d="M-623.6,510.8c-1.1,1.4-2.9,2-4.7,1.5c-2-0.6-3.2-2.5-3.1-4.5c1.4,0.4,2.8,0.5,4.1,0.4
		C-626.8,510.7-624.3,511-623.6,510.8z"/>
	<path id="XMLID_25_" class="st5" d="M-619.8,498.4c-0.1-1.7-1.3-3.3-3.1-3.8c-2-0.6-4.1,0.3-5,2c1.2,0.4,2.7,1.3,3.6,1.9
		C-622.6,496.7-620.3,497.8-619.8,498.4z"/>
	<path id="XMLID_22_" class="st5" d="M-622.3,506.4c-4,1.9-8.7,1.6-12.3-0.5c-1.3-0.8-2.6-3.6-2-5.8s3.3-3.8,4.8-3.7
		c4.3,0.2,8.4,2.7,10.6,6.3C-620.8,503.2-621.7,506.1-622.3,506.4z M-633.3,501.1c-0.5,1.7,0.4,3.5,2.1,4c1.7,0.5,3.5-0.4,4-2.1
		c0.5-1.7-0.4-3.5-2.1-4C-631,498.4-632.8,499.4-633.3,501.1z"/>
	<path id="XMLID_21_" class="st5" d="M-634.8,505.9c-4.6-3.1-1.9-9.9,2.8-9.5c-1.5-0.1-3.3,0-4.7,0.5c0,0-3.6,1.1-3.8,2
		c-0.3,0.9,2.1,3.9,2.1,3.9C-637.1,504.3-635.9,505.3-634.8,505.9z"/>
	<circle id="XMLID_16_" class="st7" cx="-630.2" cy="502" r="2.5"/>
	<linearGradient id="XMLID_4_" gradientUnits="userSpaceOnUse" x1="-621.2137" y1="505.3025" x2="-616.6732" y2="505.3025">
		<stop  offset="0" style="stop-color:#DDB32F"/>
		<stop  offset="1" style="stop-color:#D3812F"/>
	</linearGradient>
	<path id="XMLID_1_" class="st8" d="M-620.7,503.9c2-0.6,3.4,0.7,4,2.2c-1.3,1.2-3.4,1-4.5-0.3
		C-620.6,505.4-620.4,504.5-620.7,503.9z"/>
</g>
</svg>
